PathFileType	4	(X/Y/Z)	C:\Users\Gabre\Documents\2-Sophmore\Autumn\ME 191\Nick_10292018\Nick_10292018\Upper Extremity\static_upper.trc																																																																			
DataRate	CameraRate	NumFrames	NumMarkers	Units	OrigDataRate	OrigDataStartFrame	OrigNumFrames																																																															
100	100	12	23	mm	100	159	253																																																															
Frame#	Time	Back_IMU_O			Back_IMU_D			Back_IMU_X			Back_IMU_Y			c7			aa			L.Acromion			ij			EpL			EpM			R.Radius			R.Ulna			R.Hand			Humerus_IMU_O			Humerus_IMU_D			Humerus_IMU_X			Humerus_IMU_Y			Forearm_IMU_O			Forearm_IMU_D			Forearm_IMU_X			Forearm_IMU_Y			Hand_IMU_O			Scapula_IMU_O		
		X1	Y1	Z1	X2	Y2	Z2	X3	Y3	Z3	X4	Y4	Z4	X5	Y5	Z5	X6	Y6	Z6	X7	Y7	Z7	X8	Y8	Z8	X9	Y9	Z9	X10	Y10	Z10	X11	Y11	Z11	X12	Y12	Z12	X13	Y13	Z13	X14	Y14	Z14	X15	Y15	Z15	X16	Y16	Z16	X17	Y17	Z17	X18	Y18	Z18	X19	Y19	Z19	X20	Y20	Z20	X21	Y21	Z21	X22	Y22	Z22	X23	Y23	Z23
																																																																						
159	1.58	-585.89825	502.7724	1011.47528	-611.98663	572.24713	900.49683	-596.12213	587.56012	1001.18597	-601.88928	488.82739	910.65033	-580.51385	548.67615	1025.29895	-457.38409	406.18295	1008.15442	-507.48874	730.87238	977.61505	-408.94427	570.73407	984.58496	-155.17482	314.36813	953.6463	-155.67694	347.57407	885.42468	107.06873	400.91019	1011.18268	98.60481	339.76074	1025.86182	218.87526	396.37903	1021.20392	-340.008	365.52029	1026.43896	-300.43542	293.54175	927.82361	-365.68951	296.23508	944.12537	-276.57089	361.20279	1008.68719	29.84045	407.58862	1014.35779	76.9242	309.07166	1023.2832	30.59573	308.47345	1016.91113	76.08466	407.73557	1021.49304	172.83995	377.89142	1040.03601	-485.84576	368.6123	1010.90436
160	1.59	-585.83069	502.80222	1011.36865	-611.89825	572.21008	900.42865	-596.08301	587.51349	1001.1524	-601.82153	488.82639	910.67249	-580.51245	548.64551	1025.23535	-457.50909	406.15369	1008.21185	-507.50284	730.84924	977.68225	-409.08017	570.73499	984.58044	-155.25563	314.41098	953.54395	-156.17517	348.34756	884.99054	106.90058	401.00803	1011.05054	98.56292	339.76324	1025.85327	218.87589	396.42584	1021.22076	-339.90662	365.39175	1026.52087	-300.50677	293.54846	927.85541	-365.63718	296.21561	944.13007	-276.51697	361.13779	1008.68292	29.90319	407.50473	1014.48999	76.90846	309.10385	1023.32318	30.62818	308.4682	1017.02228	76.13232	407.78302	1021.6167	172.894	377.80817	1040.08484	-485.79443	368.65442	1010.98224
161	1.6	-585.80762	502.80167	1011.34808	-611.64575	572.17444	900.30341	-596.09027	587.46033	1001.12201	-601.85236	488.80618	910.66388	-580.49786	548.58679	1025.21692	-457.26065	406.12073	1008.15649	-507.53369	730.84351	977.67682	-408.95709	570.73657	984.57196	-155.10339	314.35114	953.70593	-155.78114	347.61581	885.41327	107.20534	400.90863	1011.30334	98.65264	339.73227	1025.9845	218.90912	396.40616	1021.25116	-339.99365	365.29535	1026.5542	-300.51328	293.62442	927.8432	-365.63718	296.21561	944.13007	-276.40656	361.03241	1008.75385	30.07492	407.3356	1014.59131	76.97598	309.11182	1023.34058	30.70054	308.43216	1017.03833	76.1876	407.58932	1021.5863	172.94319	377.8421	1040.16858	-485.7374	368.54971	1010.93945
162	1.61	-585.66553	502.6756	1011.26239	-611.64575	572.17444	900.30341	-596.07666	587.39746	1001.09943	-601.88928	488.82739	910.65033	-580.44366	548.52338	1025.18469	-457.41043	406.13376	1008.22559	-507.63794	730.77747	977.62231	-409.03714	570.49335	984.56738	-155.12093	314.36923	953.73834	-156.19659	348.54544	884.87469	107.22912	400.80231	1011.36163	98.60328	339.70737	1026.00427	219.07158	396.32401	1021.37073	-339.92917	365.34708	1026.59351	-300.45889	293.52872	927.90198	-365.53992	296.17844	944.1615	-276.49295	361.05908	1008.76868	30.04807	407.38858	1014.57056	77.02156	309.04428	1023.43292	30.63116	308.51553	1017.0614	76.18727	407.59586	1021.573	172.93541	377.83875	1040.21753	-485.75803	368.51263	1011.01605
163	1.62	-585.72443	502.64243	1011.35297	-611.79602	572.05322	900.37268	-596.07233	587.3974	1001.07147	-601.82178	488.71741	910.64355	-580.4469	548.49384	1025.20593	-457.26392	405.97803	1008.15503	-507.7016	730.68414	977.65826	-409.06323	570.60901	984.64764	-155.12093	314.36923	953.73834	-156.21068	348.57513	884.84912	107.22974	400.85907	1011.36487	98.60292	339.70279	1026.02173	219.07219	396.25562	1021.44995	-339.84714	365.21924	1026.66248	-300.44565	293.5351	927.94873	-365.39633	296.12375	944.20612	-276.39008	360.98758	1008.89142	30.0878	407.19754	1014.6886	77.09612	309.54428	1023.50519	30.65514	308.4285	1017.1416	76.12684	407.59	1021.44183	172.95197	377.7836	1040.25073	-485.72836	368.46368	1010.97089
164	1.63	-585.67749	502.60922	1011.29834	-611.75903	572.01685	900.32471	-596.04932	587.37701	1001.14288	-601.987	488.72525	910.8194	-580.4129	548.44885	1025.25037	-457.25284	405.97131	1008.18713	-507.71283	730.63354	977.7157	-409.08371	570.48444	984.69604	-154.9977	314.25986	953.87927	-156.25648	348.71512	884.8092	107.28923	400.82922	1011.37195	98.63776	339.64078	1026.06348	219.13684	396.17084	1021.46765	-339.84064	365.23651	1026.68677	-300.41171	293.51865	927.88629	-365.32187	296.14655	944.29614	-276.2569	360.91904	1008.97577	30.09784	407.30304	1014.68677	77.11546	309.55493	1023.48505	30.72731	308.39914	1017.27539	76.1471	407.48871	1021.52124	172.94498	377.7468	1040.28345	-485.75406	368.495	1010.99225
165	1.64	-585.69415	502.62338	1011.41968	-611.77838	571.95325	900.33258	-596.04962	587.32837	1001.19635	-601.98529	488.61246	910.92371	-580.40741	548.48724	1025.28235	-457.36673	405.8902	1008.24402	-507.65384	730.66339	977.7016	-409.09653	570.42914	984.74768	-154.95377	314.22186	953.9549	-156.20613	348.77048	884.86078	107.03127	400.86826	1011.26868	98.71732	339.59512	1026.1853	219.09055	396.12222	1021.49152	-339.78485	365.26459	1026.69336	-300.45416	293.55789	928.01306	-365.19193	296.07538	944.25549	-276.24866	360.88336	1009.03015	30.14494	407.15048	1014.77924	77.10111	309.52527	1023.56158	30.7532	308.35779	1017.34216	76.27996	407.61545	1021.78052	172.99651	377.69913	1040.38391	-485.82373	368.44037	1011.14923
166	1.65	-585.72437	502.60571	1011.534	-611.81537	571.98956	900.38055	-596.01703	587.29785	1001.20166	-601.94983	488.57678	910.87811	-580.38885	548.4278	1025.34875	-457.36105	406.04611	1008.29657	-507.64975	730.61633	977.73456	-409.02386	570.48853	984.72162	-154.90431	314.27933	953.96588	-156.0972	348.61273	884.99426	107.33287	400.70691	1011.51355	98.74045	339.59338	1026.22925	219.14679	396.11526	1021.54999	-339.91083	365.28589	1026.797	-300.36438	293.58356	928.04175	-365.22992	296.14899	944.38416	-276.28198	360.97485	1009.01239	30.19859	407.19864	1014.90161	77.13757	309.42694	1023.68091	30.80307	308.30316	1017.40918	76.33814	407.57797	1021.72369	173.02156	377.71271	1040.43835	-485.75116	368.46848	1011.11072
167	1.66	-585.70349	502.48074	1011.59631	-611.70831	571.95477	900.34692	-596.05731	587.1839	1001.24139	-601.93591	488.56052	910.92017	-580.38434	548.42639	1025.40076	-457.34897	405.9324	1008.39362	-507.7265	730.56311	977.71387	-409.04068	570.45386	984.77234	-154.91089	314.30405	953.995	-156.0096	348.47104	885.11487	107.35275	400.68405	1011.52991	98.80563	339.58084	1026.26343	219.15959	396.10886	1021.5589	-339.6149	365.22409	1026.84167	-300.41104	293.58447	928.15625	-365.30865	296.14233	944.34869	-276.27838	360.9838	1009.06714	30.18659	407.26428	1014.84857	77.14532	309.41803	1023.71417	30.87946	308.25757	1017.47986	76.39842	407.52255	1021.78088	173.14655	377.61703	1040.51062	-485.68542	368.48587	1011.26501
168	1.67	-585.81091	502.36908	1011.61938	-611.90436	571.9234	900.42773	-596.07214	587.18396	1001.26294	-601.8324	488.49292	910.9729	-580.38806	548.42645	1025.42725	-457.3985	405.86975	1008.38531	-507.66034	730.51447	977.72815	-408.99997	570.48621	984.8833	-154.81468	314.35645	954.09125	-155.9057	348.30685	885.25439	107.41148	400.65109	1011.58789	98.79912	339.55392	1026.24646	219.15907	395.97983	1021.54022	-339.6149	365.22409	1026.84167	-300.34448	293.49542	928.12793	-365.30258	296.05365	944.48035	-276.22427	361.06522	1009.13654	30.24533	407.33044	1014.86572	77.1815	309.39447	1023.73535	31.05696	308.13943	1017.60968	76.44527	407.45392	1021.86792	173.13771	377.59564	1040.52637	-485.60135	368.44089	1011.19763
169	1.68	-585.74707	502.32907	1011.60907	-611.914	571.89166	900.50189	-596.0813	587.18402	1001.28088	-602.04773	488.47318	911.06696	-580.39478	548.42578	1025.44653	-457.43332	405.89874	1008.4718	-507.65387	730.50751	977.72906	-408.96021	570.4436	984.83435	-154.8555	314.44971	954.078	-155.82567	348.10812	885.47589	107.5196	400.63956	1011.57092	98.84272	339.56113	1026.27759	219.26671	395.96356	1021.5434	-339.6149	365.22409	1026.84167	-300.22903	293.48215	928.2038	-365.39389	296.00525	944.54059	-276.2652	361.16608	1009.12207	30.24533	407.33044	1014.86572	77.20909	309.45694	1023.76068	30.95754	308.24356	1017.65381	76.48344	407.51968	1021.81848	173.20557	377.63071	1040.5238	-485.64542	368.40784	1011.25885
170	1.69	-585.79364	502.36163	1011.68494	-611.9679	571.79956	900.58893	-596.00134	587.10034	1001.22186	-601.86493	488.4924	911.03827	-580.3927	548.32959	1025.46375	-457.3887	405.90808	1008.54865	-507.68497	730.52216	977.72144	-409.00809	570.44318	984.8244	-154.80656	314.3945	954.15619	-155.69283	347.91122	885.6427	107.52381	400.61639	1011.56989	98.87411	339.60553	1026.28723	219.29054	395.92624	1021.50806	-339.67383	365.27652	1026.8916	-300.13229	293.47086	928.33722	-365.33011	295.99081	944.57397	-276.25806	361.1127	1009.20392	30.35967	407.27783	1014.89417	77.2522	309.41971	1023.77924	31.05671	308.1651	1017.58875	76.50397	407.55521	1021.80176	173.30693	377.65359	1040.46838	-485.716	368.35724	1011.27985
